<svg width="1440" height="623" viewBox="0 0 1440 623" fill="none" xmlns="http://www.w3.org/2000/svg">
<path d="M-2 616C-2 616 360.218 569.35 554.5 453C687.869 373.129 952.276 314.161 855.5 192.5C787.32 106.788 662.545 91.1105 577 159.5C456.986 255.446 671.595 407.271 808 478C1082.41 620.286 1440 1.5 1440 1.5M-2 649C-2 649 360.218 602.35 554.5 486C588.381 465.71 630.718 446.769 673.442 427.806M673.442 427.806C798.898 372.123 927.691 316.254 855.5 225.5C787.32 139.788 662.545 124.11 577 192.5C493.491 259.262 572 353.08 673.442 427.806ZM673.442 427.806C717.785 460.47 766.51 489.486 808 511C1082.41 653.286 1440 34.5 1440 34.5" stroke="#46AA9E" stroke-opacity="0.25" stroke-width="5"/>
</svg>
