<svg width="42" height="51" viewBox="0 0 42 51" fill="none" xmlns="http://www.w3.org/2000/svg">
<path d="M0 2.01986C0 0.915294 0.89543 0.0198667 2 0.0198667H40.0161V50.04H7C3.134 50.04 0 46.906 0 43.04V2.01986Z" fill="#50C2B5" fill-opacity="0.49"/>
<path d="M5.00201 49.6403V0.0198681C2.9058 0.0469769 0.500201 -0.480326 0 2.52088V43.0372C0.250101 45.7883 2.0008 48.5394 5.00201 49.6403Z" fill="#46AA9E" fill-opacity="0.26"/>
<path d="M10 41.5397C8.61929 41.5397 7.5 42.659 7.5 44.0397C7.5 45.4204 8.61929 46.5397 10 46.5397V41.5397ZM38.5114 46.5397H41.0114V41.5397H38.5114V46.5397ZM10 46.5397H38.5114V41.5397H10V46.5397Z" fill="white"/>
<rect x="9.99365" y="4.52176" width="24.5098" height="9.00362" fill="white"/>
</svg>
