<svg width="60" height="60" viewBox="0 0 60 60" fill="none" xmlns="http://www.w3.org/2000/svg">
<path d="M17.5 18.825C16.837 18.825 16.2011 18.5616 15.7322 18.0927C15.2634 17.6239 15 16.988 15 16.325V13.5C15.0065 11.1767 15.9289 8.9497 17.567 7.30222C19.2051 5.65474 21.4268 4.71969 23.75 4.69995H36.25C36.913 4.69995 37.5489 4.96334 38.0178 5.43218C38.4866 5.90103 38.75 6.53691 38.75 7.19995C38.75 7.86299 38.4866 8.49888 38.0178 8.96772C37.5489 9.43656 36.913 9.69995 36.25 9.69995H23.75C22.7509 9.7131 21.7971 10.1193 21.0953 10.8305C20.3934 11.5417 19.9999 12.5007 20 13.5V16.325C20 16.988 19.7366 17.6239 19.2678 18.0927C18.7989 18.5616 18.163 18.825 17.5 18.825Z" fill="#46AA9E"/>
<path d="M44.75 42.7C44.087 42.7 43.4511 42.4366 42.9822 41.9678C42.5134 41.4989 42.25 40.863 42.25 40.2V17.5C42.25 16.837 42.5134 16.2011 42.9822 15.7322C43.4511 15.2634 44.087 15 44.75 15C45.413 15 46.0489 15.2634 46.5178 15.7322C46.9866 16.2011 47.25 16.837 47.25 17.5V40.2C47.25 40.863 46.9866 41.4989 46.5178 41.9678C46.0489 42.4366 45.413 42.7 44.75 42.7Z" fill="#46AA9E"/>
<path d="M42.8501 22.3H36.1751C34.9525 22.248 33.8005 21.7136 32.9711 20.814C32.1417 19.9143 31.7027 18.7227 31.7501 17.5V9.47496C31.7094 8.2565 32.1515 7.07127 32.9802 6.17706C33.8088 5.28285 34.957 4.752 36.1751 4.69995C36.5423 4.69936 36.9052 4.77969 37.2379 4.93525C37.5706 5.0908 37.865 5.31775 38.1001 5.59995L46.6751 15.9C47.0568 16.3463 47.2692 16.9127 47.2751 17.5C47.3225 18.7227 46.8834 19.9143 46.054 20.814C45.2247 21.7136 44.0726 22.248 42.8501 22.3ZM36.7501 17.3H41.3251L36.7751 11.825L36.7501 17.3Z" fill="#46AA9E"/>
<path d="M48.25 55.3H11.75C11.087 55.3 10.4511 55.0366 9.98223 54.5678C9.51339 54.0989 9.25 53.463 9.25 52.8V16.325C9.25 15.662 9.51339 15.0261 9.98223 14.5572C10.4511 14.0884 11.087 13.825 11.75 13.825H20.875C21.204 13.8231 21.5302 13.8862 21.8348 14.0106C22.1394 14.135 22.4164 14.3183 22.65 14.55L50 41.925C50.471 42.3866 50.7406 43.0156 50.75 43.675V52.8C50.75 53.463 50.4866 54.0989 50.0178 54.5678C49.5489 55.0366 48.913 55.3 48.25 55.3ZM14.25 50.3H45.75V44.725L19.85 18.825H14.25V50.3Z" fill="#46AA9E"/>
</svg>
