<svg width="48" height="48" viewBox="0 0 48 48" fill="none" xmlns="http://www.w3.org/2000/svg">
<g clip-path="url(#clip0_94_28)">
<path fill-rule="evenodd" clip-rule="evenodd" d="M24.0003 1C18.3027 1.00296 12.792 3.02092 8.45349 6.69305C4.11497 10.3652 1.23156 15.452 0.318845 21.044C-0.593873 26.636 0.523609 32.3684 3.4715 37.2164C6.41938 42.0643 11.0054 45.7115 16.4096 47.5059C17.6019 47.7272 18.0509 46.9883 18.0509 46.36C18.0509 45.7317 18.0271 43.91 18.0191 41.9184C11.3425 43.3608 9.93173 39.101 9.93173 39.101C8.8428 36.3349 7.26903 35.6078 7.26903 35.6078C5.09119 34.1299 7.43198 34.1576 7.43198 34.1576C9.8443 34.3275 11.1121 36.6194 11.1121 36.6194C13.2502 40.2667 16.7275 39.2116 18.0947 38.5952C18.3093 37.0501 18.9332 35.999 19.6207 35.4023C14.2874 34.8017 8.68383 32.7548 8.68383 23.6108C8.65078 21.2394 9.5358 18.9461 11.1558 17.2054C10.9094 16.6047 10.0867 14.1785 11.3902 10.8829C11.3902 10.8829 13.4052 10.2427 17.9914 13.3289C21.9251 12.2592 26.0755 12.2592 30.0092 13.3289C34.5914 10.2427 36.6024 10.8829 36.6024 10.8829C37.9099 14.1706 37.0872 16.5968 36.8408 17.2054C38.4659 18.9464 39.3528 21.2437 39.3167 23.6187C39.3167 32.7824 33.7012 34.8017 28.3599 35.3905C29.2184 36.1333 29.9854 37.5836 29.9854 39.8122C29.9854 43.0051 29.9576 45.5736 29.9576 46.36C29.9576 46.9962 30.3907 47.7391 31.6068 47.5059C37.0117 45.7113 41.5982 42.0634 44.546 37.2147C47.4938 32.3659 48.6107 26.6326 47.697 21.0401C46.7832 15.4476 43.8984 10.3607 39.5584 6.68921C35.2185 3.01771 29.7065 1.00108 24.0082 1H24.0003Z" fill="#46AA9E"/>
<path d="M9.08912 35.264C9.03745 35.3826 8.84669 35.4181 8.6917 35.3351C8.53671 35.2522 8.42147 35.098 8.4771 34.9755C8.53274 34.853 8.71953 34.8214 8.87452 34.9044C9.02951 34.9874 9.14873 35.1455 9.08912 35.264Z" fill="#46AA9E"/>
<path d="M10.0625 36.3428C9.98016 36.384 9.88599 36.3955 9.7961 36.3753C9.7062 36.3551 9.62616 36.3045 9.56967 36.2321C9.41467 36.0662 9.38286 35.837 9.50209 35.7342C9.62131 35.6315 9.83593 35.6789 9.99093 35.8449C10.1459 36.0108 10.1817 36.24 10.0625 36.3428Z" fill="#46AA9E"/>
<path d="M11.0087 37.7139C10.8617 37.8167 10.6113 37.7139 10.4722 37.5085C10.4337 37.4716 10.4032 37.4274 10.3823 37.3785C10.3614 37.3296 10.3506 37.2771 10.3506 37.2239C10.3506 37.1708 10.3614 37.1183 10.3823 37.0694C10.4032 37.0205 10.4337 36.9763 10.4722 36.9394C10.6193 36.8406 10.8696 36.9394 11.0087 37.141C11.1478 37.3425 11.1518 37.6112 11.0087 37.7139V37.7139Z" fill="#46AA9E"/>
<path d="M12.2922 39.0417C12.1611 39.1879 11.8948 39.1484 11.6762 38.9509C11.4577 38.7533 11.406 38.4846 11.5371 38.3423C11.6683 38.2001 11.9345 38.2396 12.1611 38.4332C12.3876 38.6268 12.4313 38.8995 12.2922 39.0417V39.0417Z" fill="#46AA9E"/>
<path d="M14.0923 39.8162C14.0327 40.0019 13.7625 40.0849 13.4922 40.0058C13.222 39.9268 13.0432 39.7055 13.0948 39.5158C13.1465 39.3262 13.4207 39.2392 13.6949 39.3262C13.9691 39.4131 14.144 39.6225 14.0923 39.8162Z" fill="#46AA9E"/>
<path d="M16.0557 39.9506C16.0557 40.1442 15.8331 40.3102 15.547 40.3141C15.2608 40.3181 15.0264 40.16 15.0264 39.9664C15.0264 39.7728 15.2489 39.6068 15.535 39.6029C15.8212 39.5989 16.0557 39.753 16.0557 39.9506Z" fill="#46AA9E"/>
<path d="M17.8838 39.6463C17.9196 39.84 17.7208 40.0415 17.4347 40.0889C17.1486 40.1363 16.8982 40.0217 16.8624 39.8321C16.8267 39.6424 17.0333 39.4369 17.3115 39.3855C17.5897 39.3342 17.848 39.4527 17.8838 39.6463Z" fill="#46AA9E"/>
</g>
<defs>
<clipPath id="clip0_94_28">
<rect width="48" height="48" fill="white"/>
</clipPath>
</defs>
</svg>
