<svg width="314" height="256" viewBox="0 0 314 256" fill="none" xmlns="http://www.w3.org/2000/svg">
<g clip-path="url(#clip0_98_155)">
<g clip-path="url(#clip1_98_155)">
<path d="M246.116 217.332H31.5802C31.5802 217.332 -33.3232 168.61 15.1032 70.5641C63.5296 -27.4814 157.1 7.807 200.034 28.325C242.968 48.8431 328.769 100.974 307.336 149.094C285.902 197.215 246.116 217.332 246.116 217.332Z" fill="#F0F0E7"/>
<path d="M310.015 140.473C304.657 130.447 295.347 129.445 295.347 129.445C299.969 145.351 290.189 151.5 290.189 151.5C287.108 145.886 282.152 139.671 274.248 133.655C254.02 118.217 204.053 127.306 204.053 127.306C223.411 129.378 231.716 167.072 200.035 167.206C200.37 165.535 200.437 163.263 199.834 159.988C198.293 151.233 186.639 151.366 186.639 151.366C186.639 151.366 193.337 153.572 189.184 158.919C185.031 164.265 175.453 163.129 175.453 163.129C175.453 163.129 94.6085 148.96 59.1092 151.433C19.7921 154.173 2.44434 174.892 2.44434 174.892C7.46782 200.69 31.4466 217.265 31.4466 217.265H235.132C271.033 204.834 287.376 183.714 292.869 174.892C307.738 158.852 310.015 140.473 310.015 140.473Z" fill="#FFF9FF"/>
<path d="M26.3559 178.835L25.2842 178.033C25.82 177.298 39.216 159.921 94.8092 162.862C126.089 164.533 147.589 168.075 161.856 170.481C171.032 172.018 177.127 173.021 180.275 172.553C192.935 170.615 193.269 166.27 193.269 166.204H194.609C194.609 166.738 194.207 171.751 180.476 173.823C177.127 174.357 170.965 173.288 161.655 171.751C147.455 169.345 125.955 165.803 94.7422 164.132C66.1418 162.661 49.062 166.671 39.7518 170.347C29.7048 174.424 26.3559 178.835 26.3559 178.835Z" fill="#F0F0E7"/>
<path d="M254.489 209.779L254.154 208.51C254.221 208.51 257.637 207.507 263.398 203.697C268.689 200.222 276.927 193.539 286.573 181.776C316.512 144.95 308.408 126.571 308.274 126.371L309.48 125.769C309.814 126.571 318.053 145.084 287.577 182.578C268.89 205.569 255.092 209.579 254.489 209.779Z" fill="#F0F0E7"/>
<path d="M234.797 86.2033H321C321 86.2033 314.436 75.7104 300.437 75.7772C291.663 75.844 286.238 80.9902 286.238 80.9902C286.238 80.9902 284.161 67.8908 269.292 65.5516C252.346 62.8114 248.059 75.9109 248.059 75.9109C248.059 75.9109 245.38 70.8983 240.222 72.4355C235.132 73.9058 234.864 78.8516 234.864 78.8516C234.864 78.8516 227.831 79.7872 227.697 86.2701H234.797V86.2033Z" fill="#A8D4DA"/>
<path d="M236.941 38.016C236.807 31.5331 229.774 30.5974 229.774 30.5974C229.774 30.5974 229.506 25.7185 224.415 24.1813C219.258 22.711 216.579 27.6567 216.579 27.6567C216.579 27.6567 212.292 14.5573 195.346 17.2974C180.477 19.7035 178.4 32.7361 178.4 32.7361C178.4 32.7361 172.975 27.5899 164.2 27.523C150.202 27.4562 143.638 37.9492 143.638 37.9492H229.841H236.941V38.016Z" fill="#A8D4DA"/>
<path d="M241.763 98.7013L243.236 113.405C243.236 113.405 244.174 115.076 246.987 114.808C249.8 114.541 251.475 113.071 251.475 113.071V98.7013C251.475 98.7013 247.456 95.5601 241.763 98.7013Z" fill="#FFB949"/>
<path d="M265.608 135.861C261.12 118.351 254.556 118.484 254.556 118.484L253.685 110.13C255.695 109.395 256.766 105.318 256.766 105.318H247.054H237.342C237.342 105.318 238.414 109.395 240.423 110.13L239.553 118.484C239.553 118.484 232.989 118.351 228.501 135.861C225.42 147.824 232.587 214.792 232.587 214.792H247.121H261.656C261.522 214.792 268.689 147.824 265.608 135.861Z" fill="white"/>
<path d="M261.857 215.193H232.118V214.859C231.85 212.119 224.951 147.691 228.032 135.794C232.051 120.289 237.61 118.351 239.151 118.15L239.954 110.33C238.012 109.328 236.94 105.518 236.94 105.385L236.806 104.917H257.302L257.168 105.385C257.101 105.518 256.096 109.328 254.154 110.33L254.958 118.15C256.431 118.351 262.058 120.289 266.076 135.794C269.157 147.691 262.259 212.119 261.991 214.859L261.857 215.193ZM232.854 214.458H261.187C261.723 209.245 268.153 147.29 265.273 135.995C260.919 119.086 254.623 118.885 254.556 118.885H254.221L254.154 118.551L253.283 109.863L253.551 109.729C254.824 109.261 255.828 106.922 256.23 105.652H237.811C238.213 106.922 239.218 109.261 240.49 109.729L240.758 109.863L239.82 118.885H239.485C239.418 118.885 233.189 119.086 228.769 135.995C225.822 147.29 232.319 209.245 232.854 214.458Z" fill="#87C4CA"/>
<path d="M232.854 157.582C232.854 157.582 232.854 163.196 232.854 167.741C232.854 172.286 236.136 212.72 236.136 212.72H257.503C257.503 212.72 260.718 162.26 260.852 154.575C260.986 146.889 259.847 143.012 258.508 142.344C257.168 141.676 252.011 143.346 250.202 147.022C248.461 150.698 242.567 153.572 238.883 152.503C235.199 151.433 232.854 154.641 232.854 157.582Z" fill="#87C4CA"/>
<path d="M51.2723 212.586L16.5768 125.234C14.6344 120.289 18.2513 114.875 23.5427 114.875H147.053C150.134 114.875 152.881 116.746 154.019 119.62L188.715 206.972C190.657 211.918 187.04 217.332 181.749 217.332H58.2382C55.1572 217.332 52.411 215.46 51.2723 212.586Z" fill="#A7D4D9"/>
<path d="M57.1001 207.373L26.2894 129.846C24.5479 125.435 27.7629 120.623 32.4515 120.623H142.03C144.777 120.623 147.188 122.294 148.193 124.833L179.003 202.361C180.745 206.772 177.53 211.584 172.841 211.584H63.2622C60.516 211.584 58.1048 209.913 57.1001 207.373Z" fill="#DCEEF0"/>
<path d="M35.398 135.594L32.5179 128.376C32.3839 127.975 32.6518 127.507 33.1207 127.507H43.3686C43.6365 127.507 43.8375 127.64 43.9714 127.908L46.8516 135.126C46.9855 135.527 46.7176 135.995 46.2487 135.995H36.0008C35.7329 135.995 35.532 135.861 35.398 135.594Z" fill="#A7D4D9"/>
<path d="M51.0043 135.995L47.6553 127.507H143.369L146.718 135.995H51.0043Z" fill="#A7D4D9"/>
<path d="M94.809 148.827L91.46 140.339H139.284L142.699 148.827H94.809Z" fill="#87C4CA"/>
<path d="M129.906 162.528L127.964 157.582H155.426L157.368 162.528H129.906Z" fill="#87C4CA"/>
<path d="M133.926 171.149L131.983 166.271H159.512L161.454 171.149H133.926Z" fill="#87C4CA"/>
<path d="M141.159 188.727L139.217 183.848H166.745L168.688 188.727H141.159Z" fill="#93CACF"/>
<path d="M137.944 179.838L136.002 174.959H163.531L165.473 179.838H137.944Z" fill="white"/>
<path d="M61.0515 195.611L45.9141 157.582H57.4346L72.572 195.611H61.0515Z" fill="#FF9D00"/>
<path d="M83.2218 195.611L68.1514 157.582H79.6719L94.7423 195.611H83.2218Z" fill="#FFB949"/>
<path d="M103.249 195.611L92.7998 168.743H104.32L114.769 195.611H103.249Z" fill="#FFB949"/>
<path d="M125.419 195.611L117.047 174.491H128.567L136.94 195.611H125.419Z" fill="#FF9D00"/>
<path d="M41.4267 148.827L38.0107 140.339H85.9013L89.2503 148.827H41.4267Z" fill="#87C4CA"/>
<path d="M218.99 151.433H215.306V217.399H218.99V151.433Z" fill="#A69FFF"/>
<path d="M272.841 217.332H54.2863L46.8516 201.425H272.841V217.332Z" fill="#C4E2E5"/>
<path d="M46.8516 201.425H169.023L168.688 217.332H54.2863L46.8516 201.425Z" fill="#93CACF"/>
<path d="M126.022 179.169L102.445 175.828L78.0647 163.998L55.9614 177.231L55.2246 175.961L77.9977 162.394L102.847 174.424L126.223 177.766L126.022 179.169Z" fill="#948BF1"/>
<g style="mix-blend-mode:multiply">
<path d="M90.8578 201.425L34.9297 114.875H55.6264L111.555 201.425H90.8578Z" fill="#DCEEF0"/>
</g>
<g style="mix-blend-mode:multiply">
<path d="M117.65 201.425L61.7217 114.875H102.11L158.039 201.425H117.65Z" fill="#DCEEF0"/>
</g>
<path d="M244.71 195.611H86.9728C83.8917 195.611 81.4805 198.084 81.4805 201.091V201.425H250.27V201.091C250.203 198.084 247.724 195.611 244.71 195.611Z" fill="white"/>
<path d="M250.605 201.826H81.0117V201.091C81.0117 197.816 83.6909 195.143 86.9729 195.143H244.71C247.992 195.143 250.672 197.816 250.672 201.091V201.826H250.605ZM81.8825 201.024H249.801C249.801 198.217 247.456 196.012 244.71 196.012H86.9729C84.1598 196.012 81.8825 198.217 81.8825 201.024Z" fill="#87C4CA"/>
<path d="M231.85 138C234.218 138 236.137 136.085 236.137 133.722C236.137 131.36 234.218 129.445 231.85 129.445C229.483 129.445 227.563 131.36 227.563 133.722C227.563 136.085 229.483 138 231.85 138Z" fill="#FF9D00"/>
<path d="M217.182 134.257H191.797C190.256 134.257 189.653 136.262 190.993 137.131L214.168 151.3C214.436 151.433 214.704 151.5 214.972 151.5H217.182H219.392C219.66 151.5 219.928 151.433 220.196 151.3L243.371 137.131C244.711 136.329 244.108 134.257 242.567 134.257H217.182Z" fill="white"/>
<path d="M219.392 151.901H214.971C214.636 151.901 214.301 151.834 213.966 151.634L190.791 137.465C190.055 136.997 189.72 136.128 189.921 135.326C190.189 134.458 190.858 133.923 191.796 133.923H242.634C243.505 133.923 244.241 134.458 244.509 135.326C244.777 136.195 244.442 136.997 243.639 137.465L220.463 151.634C220.062 151.834 219.727 151.901 219.392 151.901ZM191.796 134.658C191.126 134.658 190.791 135.059 190.657 135.527C190.524 135.928 190.591 136.463 191.193 136.797L214.368 150.966C214.569 151.099 214.77 151.166 214.971 151.166H219.392C219.593 151.166 219.794 151.099 219.995 150.966L243.17 136.797C243.705 136.463 243.772 135.928 243.705 135.527C243.572 135.126 243.237 134.658 242.567 134.658H191.796Z" fill="#87C4CA"/>
<path d="M200.973 139.27L215.842 147.624H219.861L235.333 138.802C235.333 138.802 230.377 137.599 225.822 138.802C221.268 140.005 218.588 141.275 214.971 140.874C211.355 140.406 206.063 138.133 200.973 139.27Z" fill="#A69FFF"/>
<path d="M232.184 131.784H231.515C231.515 131.717 231.783 124.9 239.619 122.695L239.82 123.363C232.452 125.368 232.184 131.517 232.184 131.784Z" fill="#FFB949"/>
<path d="M244.108 146.621C244.108 146.621 241.227 146.22 239.218 147.022C237.209 147.824 237.61 150.097 240.759 149.963C243.907 149.829 247.791 146.822 244.108 146.621Z" fill="#87C4CA"/>
<path d="M107.938 158.25H96.0152C93.8049 158.25 91.7955 156.847 91.0587 154.842L71.5676 103.914C70.9648 102.243 71.1657 100.439 72.1704 98.9686C73.1751 97.4982 74.7826 96.6294 76.5911 96.6294H108.005V97.9661H76.5911C75.2515 97.9661 74.0459 98.5676 73.3091 99.7038C72.5723 100.84 72.3714 102.177 72.8402 103.38L92.3313 154.374C92.9342 155.911 94.4077 156.914 96.0822 156.914H108.005V158.25H107.938Z" fill="#948BF1"/>
<path d="M91.2596 102.979L85.7673 89.0772C85.4324 88.2752 86.0352 87.4731 86.8389 87.4731H175.654C176.123 87.4731 176.592 87.7405 176.726 88.2083L182.218 102.11C182.553 102.912 181.95 103.714 181.146 103.714H92.3313C91.8624 103.781 91.3936 103.446 91.2596 102.979Z" fill="white"/>
<path d="M181.146 104.115H92.3308C91.661 104.115 91.1251 103.714 90.8572 103.112L85.3649 89.2108C85.1639 88.743 85.2309 88.2083 85.4988 87.7405C85.7668 87.3395 86.3026 87.0721 86.7715 87.0721H175.587C176.256 87.0721 176.792 87.4731 177.06 88.0747L182.553 101.976C182.753 102.444 182.686 102.979 182.419 103.446C182.151 103.914 181.682 104.115 181.146 104.115ZM86.8384 87.941C86.5705 87.941 86.3026 88.0747 86.1686 88.2752C86.0347 88.4757 85.9677 88.743 86.1017 89.0103L91.594 102.912C91.728 103.246 91.9959 103.38 92.3308 103.38H181.146C181.414 103.38 181.682 103.246 181.816 103.045C181.95 102.845 182.017 102.578 181.883 102.31L176.39 88.4088C176.256 88.0747 175.989 87.941 175.654 87.941H86.8384Z" fill="#87C4CA"/>
<path d="M96.4167 97.7657L94.7422 93.4883H118.855L120.596 97.7657H96.4167Z" fill="#87C4CA"/>
<path d="M123.879 97.7657L122.204 93.4883H146.317L148.058 97.7657H123.879Z" fill="#87C4CA"/>
<path d="M151.541 97.7657L149.866 93.4883H155.158L156.832 97.7657H151.541Z" fill="#87C4CA"/>
<path d="M179.338 88.743C180.141 92.7531 177.596 95.6938 173.845 95.3596C170.161 95.0254 166.678 91.7506 165.875 87.941C165.071 84.1315 167.281 81.124 170.965 81.1908C174.716 81.3245 178.601 84.733 179.338 88.743Z" fill="#FFC633"/>
<path d="M174.448 95.6938C174.247 95.6938 174.046 95.6938 173.846 95.6938C170.028 95.3596 166.411 91.9511 165.54 88.0079C165.138 86.0028 165.473 84.0647 166.612 82.6611C167.616 81.4581 169.224 80.7898 170.965 80.8566C174.984 80.9903 178.869 84.4657 179.74 88.6762C180.142 90.8149 179.74 92.6862 178.534 94.0229C177.529 95.1591 176.056 95.6938 174.448 95.6938ZM170.764 81.5918C169.291 81.5918 168.018 82.1265 167.148 83.1958C166.143 84.3988 165.808 86.0697 166.21 87.8742C166.947 91.4832 170.43 94.6913 173.846 94.9586C175.52 95.0923 176.927 94.6244 177.931 93.5551C179.003 92.4189 179.338 90.6812 179.003 88.8099C178.266 85.0003 174.582 81.6586 170.965 81.5918C170.898 81.5918 170.831 81.5918 170.764 81.5918Z" fill="#FF9D00"/>
<path d="M173.042 90.9485C172.908 90.9485 172.774 90.8817 172.64 90.8148L169.157 88.342C168.889 88.1415 168.755 87.7405 169.023 87.4063C169.224 87.0722 169.626 87.0053 169.961 87.2727L172.841 89.2777L177.128 81.7254C177.328 81.3913 177.73 81.3244 178.065 81.4581C178.4 81.6586 178.467 82.0596 178.333 82.3938L173.712 90.5475C173.645 90.6812 173.444 90.8149 173.243 90.8817C173.176 90.9485 173.109 90.9485 173.042 90.9485Z" fill="#857BFF"/>
<path d="M75.4523 206.638H59.2432V211.985H75.4523V206.638Z" fill="#DCEEF0"/>
<path d="M94.0055 211.985H83.1548C81.6812 211.985 80.4756 210.782 80.4756 209.312C80.4756 207.841 81.6812 206.638 83.1548 206.638H94.0055C95.4791 206.638 96.6847 207.841 96.6847 209.312C96.6847 210.849 95.4791 211.985 94.0055 211.985Z" fill="#DCEEF0"/>
<path d="M114.233 211.584C115.602 211.584 116.711 210.477 116.711 209.111C116.711 207.745 115.602 206.638 114.233 206.638C112.864 206.638 111.755 207.745 111.755 209.111C111.755 210.477 112.864 211.584 114.233 211.584Z" fill="#DCEEF0"/>
<path d="M86.5043 218C39.4175 218 3.44936 217.933 2.37768 217.733C1.84184 217.599 1.50694 217.064 1.57392 216.53C1.70788 215.995 2.17674 215.661 2.71258 215.728C7.87002 216.329 307.605 215.728 310.686 215.728C311.221 215.728 311.69 216.195 311.69 216.73C311.69 217.265 311.221 217.733 310.686 217.733C290.659 217.733 170.765 218 86.5043 218Z" fill="#87C4CA"/>
<path d="M0.166837 63.7471H86.3698C86.3698 63.7471 79.8058 53.2542 65.807 53.321C57.0327 53.3879 51.6073 58.5341 51.6073 58.5341C51.6073 58.5341 49.5309 45.5014 34.6614 43.0954C17.7155 40.3552 13.4288 53.4547 13.4288 53.4547C13.4288 53.4547 10.7496 48.4421 5.5922 49.9793C0.501735 51.4497 0.233817 56.3954 0.233817 56.3954C0.233817 56.3954 -6.86604 57.2642 -7 63.7471H0.166837Z" fill="#A8D4DA"/>
<path d="M132.452 21.8422C134.19 21.8422 135.6 20.4358 135.6 18.701C135.6 16.9662 134.19 15.5598 132.452 15.5598C130.713 15.5598 129.304 16.9662 129.304 18.701C129.304 20.4358 130.713 21.8422 132.452 21.8422Z" fill="#A8D4DA"/>
<path d="M204.121 66.8884C205.859 66.8884 207.269 65.482 207.269 63.7472C207.269 62.0123 205.859 60.606 204.121 60.606C202.382 60.606 200.973 62.0123 200.973 63.7472C200.973 65.482 202.382 66.8884 204.121 66.8884Z" fill="#A8D4DA"/>
<path d="M55.6266 84.332C57.3652 84.332 58.7746 82.9256 58.7746 81.1908C58.7746 79.4559 57.3652 78.0496 55.6266 78.0496C53.8879 78.0496 52.4785 79.4559 52.4785 81.1908C52.4785 82.9256 53.8879 84.332 55.6266 84.332Z" fill="#A8D4DA"/>
<path d="M171.769 131.784C172.99 131.784 173.979 130.797 173.979 129.579C173.979 128.36 172.99 127.373 171.769 127.373C170.548 127.373 169.559 128.36 169.559 129.579C169.559 130.797 170.548 131.784 171.769 131.784Z" fill="#A8D4DA"/>
<path d="M179.003 156.045C179.743 156.045 180.342 155.446 180.342 154.708C180.342 153.97 179.743 153.371 179.003 153.371C178.263 153.371 177.663 153.97 177.663 154.708C177.663 155.446 178.263 156.045 179.003 156.045Z" fill="#FFF9FF"/>
<path d="M275.119 127.507C276.377 127.507 277.396 126.489 277.396 125.234C277.396 123.979 276.377 122.962 275.119 122.962C273.861 122.962 272.842 123.979 272.842 125.234C272.842 126.489 273.861 127.507 275.119 127.507Z" fill="#FFF9FF"/>
<path d="M295.347 164.332C293.874 154.909 286.238 144.148 286.171 144.015L287.243 143.213C287.577 143.681 295.146 154.374 296.687 164.132L295.347 164.332Z" fill="#F0F0E7"/>
<path d="M195.346 185.519L194.408 184.583C197.623 181.241 199.7 173.89 200.302 163.998C200.302 163.731 200.302 163.53 200.302 163.53L201.642 163.731C201.642 163.798 201.642 163.931 201.642 164.132C201.039 174.291 198.829 181.91 195.346 185.519Z" fill="#F0F0E7"/>
<path d="M284.429 174.625L283.09 174.424C285.367 159.186 279.071 154.04 279.004 153.973L279.808 152.904C280.143 153.104 286.841 158.585 284.429 174.625Z" fill="#F0F0E7"/>
<path d="M216.713 138.868C215.708 138.668 211.354 137.665 210.684 138.2C210.015 138.735 212.895 139.604 214.368 139.804C215.842 140.005 217.449 140.138 217.449 139.604C217.516 139.136 216.713 138.868 216.713 138.868Z" fill="#A69FFF"/>
</g>
</g>
<defs>
<clipPath id="clip0_98_155">
<rect width="314" height="256" fill="white"/>
</clipPath>
<clipPath id="clip1_98_155">
<rect width="328" height="213" fill="white" transform="translate(-7 5)"/>
</clipPath>
</defs>
</svg>
