<svg width="60" height="60" viewBox="0 0 60 60" fill="none" xmlns="http://www.w3.org/2000/svg">
<path d="M6.0749 55.2999C5.86728 55.3243 5.65752 55.3243 5.4499 55.2999C4.81163 55.1349 4.26439 54.7244 3.92727 54.1579C3.59016 53.5914 3.49047 52.9146 3.6499 52.2749L14.9999 6.59991C15.1368 6.04522 15.4595 5.55415 15.9144 5.20845C16.3693 4.86275 16.9288 4.68328 17.4999 4.69991H44.9999C45.3692 4.70236 45.7333 4.78657 46.0661 4.94651C46.399 5.10644 46.6923 5.33813 46.9249 5.62491C47.1606 5.91035 47.3299 6.24455 47.4207 6.60339C47.5115 6.96223 47.5215 7.33675 47.4499 7.69991L38.1499 53.2749C38.0206 53.938 37.6332 54.5225 37.0729 54.8999C36.5127 55.2773 35.8254 55.4167 35.1624 55.2874C34.4994 55.1581 33.9148 54.7707 33.5374 54.2105C33.16 53.6502 33.0206 52.963 33.1499 52.2999L41.6749 9.79991H19.4249L8.4999 53.3999C8.3659 53.9419 8.05432 54.4235 7.61483 54.7678C7.17534 55.1122 6.63322 55.2995 6.0749 55.2999Z" fill="#46AA9E"/>
<path d="M8.34985 46.1749C7.68681 46.1749 7.05093 45.9115 6.58209 45.4427C6.11325 44.9739 5.84985 44.338 5.84985 43.6749C5.84985 43.0119 6.11325 42.376 6.58209 41.9072C7.05093 41.4383 7.68681 41.1749 8.34985 41.1749H37.5499C38.2129 41.1749 38.8488 41.4383 39.3176 41.9072C39.7865 42.376 40.0499 43.0119 40.0499 43.6749C40.0499 44.338 39.7865 44.9739 39.3176 45.4427C38.8488 45.9115 38.2129 46.1749 37.5499 46.1749H8.34985Z" fill="#46AA9E"/>
<path d="M53.9248 55.2999C53.3604 55.3192 52.8061 55.1469 52.3521 54.8109C51.8982 54.475 51.5713 53.9953 51.4248 53.4499L44.5748 28.4499C44.488 28.1314 44.4651 27.7989 44.5075 27.4715C44.5499 27.1442 44.6566 26.8284 44.8216 26.5425C44.9867 26.2567 45.2067 26.0063 45.469 25.8059C45.7313 25.6055 46.0306 25.459 46.3498 25.3749C46.9896 25.2071 47.6698 25.2997 48.2415 25.6324C48.8131 25.9651 49.2297 26.5107 49.3998 27.1499L56.2498 52.1499C56.4185 52.7863 56.3293 53.4635 56.0017 54.0345C55.674 54.6056 55.1344 55.0243 54.4998 55.1999C54.3138 55.2598 54.1202 55.2935 53.9248 55.2999Z" fill="#46AA9E"/>
<path d="M26.5747 55.3C26.0682 55.2966 25.5746 55.1394 25.1594 54.8492C24.7442 54.559 24.427 54.1495 24.2497 53.675L20.8247 44.55C20.6874 44.2386 20.615 43.9024 20.6121 43.5621C20.6093 43.2217 20.6759 42.8844 20.808 42.5707C20.9401 42.2571 21.1349 41.9737 21.3804 41.7379C21.6258 41.5021 21.9169 41.319 22.2356 41.1997C22.5544 41.0804 22.8941 41.0274 23.2341 41.044C23.574 41.0606 23.907 41.1465 24.2126 41.2963C24.5182 41.4461 24.79 41.6568 25.0113 41.9153C25.2326 42.1739 25.3988 42.4749 25.4997 42.8L28.9247 51.925C29.1538 52.5387 29.1329 53.2179 28.8664 53.8163C28.5999 54.4148 28.1091 54.8847 27.4997 55.125C27.2086 55.2526 26.8923 55.3124 26.5747 55.3Z" fill="#46AA9E"/>
<path d="M34.55 23.375H20.875C20.212 23.375 19.5761 23.1116 19.1072 22.6428C18.6384 22.1739 18.375 21.538 18.375 20.875C18.375 20.212 18.6384 19.5761 19.1072 19.1072C19.5761 18.6384 20.212 18.375 20.875 18.375H34.55C35.213 18.375 35.8489 18.6384 36.3178 19.1072C36.7866 19.5761 37.05 20.212 37.05 20.875C37.05 21.538 36.7866 22.1739 36.3178 22.6428C35.8489 23.1116 35.213 23.375 34.55 23.375Z" fill="#46AA9E"/>
<path d="M32.2748 32.5H18.5999C17.9368 32.5 17.3009 32.2366 16.8321 31.7678C16.3632 31.2989 16.0999 30.663 16.0999 30C16.0999 29.337 16.3632 28.7011 16.8321 28.2322C17.3009 27.7634 17.9368 27.5 18.5999 27.5H32.2748C32.9379 27.5 33.5738 27.7634 34.0426 28.2322C34.5115 28.7011 34.7748 29.337 34.7748 30C34.7748 30.663 34.5115 31.2989 34.0426 31.7678C33.5738 32.2366 32.9379 32.5 32.2748 32.5Z" fill="#46AA9E"/>
</svg>
