<svg width="39" height="45" viewBox="0 0 39 45" fill="none" xmlns="http://www.w3.org/2000/svg">
<path d="M0 5C0 2.23858 2.23858 0 5 0H25V45H5C2.23858 45 0 42.7614 0 40V5Z" fill="#50C2B5"/>
<path d="M25 13H39V40C39 42.7614 36.7614 45 34 45H25V13Z" fill="#50C2B5"/>
<path d="M39 13L25 0V13H39Z" fill="#50C2B5"/>
<circle cx="27.5" cy="10.5" r="2.5" fill="white"/>
<path d="M25 10V0L39 13H27V12V10H25Z" fill="white"/>
<path d="M39 23L27 13H39V23Z" fill="black" fill-opacity="0.25"/>
<path d="M6 17H24V18H6V17Z" fill="white"/>
<rect x="6" y="22" width="18" height="1" fill="white"/>
<rect x="6" y="27" width="18" height="1" fill="white"/>
<rect x="6" y="32" width="9" height="1" fill="white"/>
</svg>
