<svg width="925" height="897" viewBox="0 0 925 897" fill="none" xmlns="http://www.w3.org/2000/svg">
<g clip-path="url(#clip0_7_34)">
<path d="M569.8 360.133L549.004 412.615L514.78 435.068L504.326 360.373C504.326 360.373 523.502 361.368 539.87 361.309C556.238 361.248 569.8 360.133 569.8 360.133Z" fill="#CD845B"/>
<path d="M493.765 264.966C488.597 274.293 485.246 287.118 483.083 300.316C478.372 329.052 473.409 347.124 494.972 362.335C516.534 377.545 569.333 361.159 569.333 361.159C569.333 361.159 585.025 321.591 578.936 291.557C578.936 291.557 563.29 283.994 554.8 271.36C546.311 258.726 538.956 239.2 538.956 239.2C538.956 239.2 510.19 235.333 493.765 264.966Z" fill="#FFAF81"/>
<path d="M537.472 241.489L537.121 277.89L582.24 292.328L537.472 241.489Z" fill="#CD845B"/>
<path d="M512.241 292.079C512.241 281.263 502.878 272.494 491.327 272.494C479.776 272.494 470.413 281.263 470.413 292.079C470.413 302.896 479.776 311.665 491.327 311.665C502.878 311.665 512.241 302.896 512.241 292.079Z" stroke="white" stroke-width="0.00195312" stroke-miterlimit="10" stroke-linecap="round" stroke-linejoin="round"/>
<path d="M564.976 299.818C564.976 289.001 555.611 280.233 544.061 280.233C532.51 280.233 523.146 289.001 523.146 299.818C523.146 310.634 532.51 319.403 544.061 319.403C555.611 319.403 564.976 310.634 564.976 299.818Z" stroke="white" stroke-width="0.00195312" stroke-miterlimit="10" stroke-linecap="round" stroke-linejoin="round"/>
<path d="M521.386 296.883L512.728 295.908" stroke="white" stroke-width="0.00195312" stroke-miterlimit="10" stroke-linecap="round" stroke-linejoin="round"/>
<path d="M565.821 305.891L577.133 303.731L565.821 305.891Z" fill="#FFAF81"/>
<path d="M565.249 304.837L576.901 301.605" stroke="white" stroke-width="0.00195312" stroke-miterlimit="10" stroke-linecap="round" stroke-linejoin="round"/>
<path d="M528.736 336.309C528.736 336.309 520.088 342.347 508.643 339.577C497.197 336.805 496.936 328.886 496.936 328.886" stroke="#FA0000" stroke-width="0.00195312" stroke-miterlimit="10" stroke-linecap="round" stroke-linejoin="round"/>
<path d="M548.967 288.237C548.967 288.237 541.388 285.892 536.87 288.381C532.352 290.871 530.897 298.196 530.897 298.196" stroke="white" stroke-width="0.00195312" stroke-miterlimit="10" stroke-linecap="round" stroke-linejoin="round"/>
<path d="M496.782 281.489C496.782 281.489 489.202 279.144 484.684 281.633C480.167 284.123 478.711 291.447 478.711 291.447" stroke="white" stroke-width="0.00195312" stroke-miterlimit="10" stroke-linecap="round" stroke-linejoin="round"/>
<path d="M665.372 608.828L385.137 609.728C385.137 609.728 373 754 385.137 768.5C397.274 783 655.967 748.5 655.967 748.5C655.967 748.5 655.967 747.5 655.967 727.5C655.967 707.5 665.372 608.828 665.372 608.828Z" fill="#46AA9E"/>
<path d="M699.966 532.186C699.966 449.952 620.695 389.207 528.166 389.207C435.637 389.207 360.417 456.154 360.417 538.388C360.417 559.347 370.682 615.462 379.475 633.553C405.182 686.441 459.009 687.286 527.955 687.286C620.484 687.286 699.966 614.42 699.966 532.186Z" fill="#50C2B5"/>
<path d="M656.569 437.034C656.569 437.034 711.602 496.069 714.337 567.129C717.071 638.19 708.531 671.082 671.952 682.62C635.373 694.156 568.021 613.277 568.021 613.277C568.021 613.277 583.127 600.966 591.917 579.009C600.705 557.052 603.175 525.45 603.175 525.45L657.678 577.347L656.569 437.034Z" fill="#46AA9E" stroke="black" stroke-width="0.000976562" stroke-miterlimit="10" stroke-linecap="round" stroke-linejoin="round"/>
<path d="M604.122 525.68C604.122 525.68 586.225 504.684 556.282 494.657C526.337 484.63 509.831 482.065 501.995 489.799C496.148 495.57 506.271 507.05 506.271 507.05L527.338 507.359L567.35 528.032L527.223 507.55L506.139 507.453C506.139 507.453 501.448 514.262 501.503 521.252C501.559 528.243 506.361 535.414 506.361 535.414L522.051 533.625L553.817 543.82L521.992 533.326L506.199 535.561C506.199 535.561 497.838 546.806 501.342 554.59C504.847 562.375 511.234 566.701 511.234 566.701L519.348 556.03L543.713 560.668L519.373 556.409L510.669 567.28C510.669 567.28 507.162 575.559 517.62 584.736C528.078 593.914 535.753 596.891 543.405 596.572C551.056 596.254 545.27 586.133 545.27 586.133L567.806 613.729C567.806 613.729 588.029 602.969 597.109 580.956C606.188 558.944 604.122 525.68 604.122 525.68Z" fill="#FFAF81" stroke="black" stroke-width="0.000976562" stroke-miterlimit="10" stroke-linecap="round" stroke-linejoin="round"/>
<path d="M498.672 430.613C498.672 430.613 483.172 472.077 476.306 527.164C469.441 582.253 471.211 650.964 471.211 650.964" stroke="black" stroke-width="0.00195312" stroke-miterlimit="10" stroke-linecap="round" stroke-linejoin="round"/>
<path d="M424.135 421.237C424.135 421.237 362.278 466.539 335.14 520.913C308.004 575.288 295.48 603.408 309.766 637.79C324.245 672.635 337.991 668.991 359.746 668.857C381.5 668.723 402.263 635.775 402.263 635.775C402.263 635.775 379.254 623.156 368.466 604.622C357.678 586.089 373.261 557.115 373.261 557.115L424.135 421.237Z" fill="#46AA9E" stroke="black" stroke-width="0.000976562" stroke-miterlimit="10" stroke-linecap="round" stroke-linejoin="round"/>
<path d="M476.858 495.852L404.71 480.031L410.005 582.524L480.024 602.946L476.858 495.852Z" fill="#FEBB14"/>
<path d="M355.852 560.227C355.852 560.227 368.583 540.221 388.535 531.272C408.485 522.322 435.656 524.429 435.656 524.429C435.656 524.429 443.02 525.351 444.41 529.231C445.802 533.111 441.22 539.948 441.22 539.948L410.317 540.002L388.529 552.289L410.35 539.762L441.039 540.089C441.039 540.089 453.591 542.354 457.403 546.671C461.215 550.988 456.287 557.358 456.287 557.358L421.262 559.265L396.855 573.088L421.127 559.248L455.721 557.255C455.721 557.255 462.368 560.544 463.602 566.675C464.836 572.807 460.659 581.78 460.659 581.78L433.493 582.143L417.353 587.067L433.267 582.148L460.858 581.63C460.858 581.63 465.799 588.012 464.905 595.088C464.013 602.164 453.415 601.824 453.415 601.824L432.55 608.079L400.797 635.164C400.797 635.164 374.883 620.499 365.434 602.231C355.984 583.964 355.852 560.227 355.852 560.227Z" fill="#FFAF81" stroke="black" stroke-width="0.000976562" stroke-miterlimit="10" stroke-linecap="round" stroke-linejoin="round"/>
<path d="M590.059 637.399C590.059 637.399 616.334 625.782 626.116 608.149C635.898 590.514 638.504 577.643 638.504 577.643" fill="#50C2B5"/>
<path d="M590.059 637.399C590.059 637.399 616.334 625.782 626.116 608.149C635.898 590.514 638.504 577.643 638.504 577.643" stroke="black" stroke-width="0.000976562" stroke-miterlimit="10" stroke-linecap="round" stroke-linejoin="round"/>
<path d="M388.669 651.299C388.669 651.299 360.464 642.97 349.516 628.339C338.568 613.707 336.848 592.622 336.848 592.622" fill="#50C2B5"/>
<path d="M388.669 651.299C388.669 651.299 360.464 642.97 349.516 628.339C338.568 613.707 336.848 592.622 336.848 592.622" stroke="black" stroke-width="0.000976562" stroke-miterlimit="10" stroke-linecap="round" stroke-linejoin="round"/>
<path d="M404.778 479.709L419.127 472.328L486.21 487.056L476.934 496.104L479.789 602.021L493.985 595.427L486.221 487.285" fill="white"/>
<path d="M414.854 484.702C414.854 484.702 412.374 469.671 416.2 466.875C420.025 464.077 430.779 474.885 430.779 474.885" stroke="black" stroke-width="0.000976562" stroke-miterlimit="10" stroke-linecap="round" stroke-linejoin="round"/>
<path d="M420.743 486.301C420.743 486.301 418.264 471.27 422.089 468.473C425.914 465.675 436.668 476.484 436.668 476.484" stroke="black" stroke-width="0.000976562" stroke-miterlimit="10" stroke-linecap="round" stroke-linejoin="round"/>
<path d="M426.1 487.334C426.1 487.334 423.621 472.304 427.446 469.507C431.271 466.709 442.024 477.518 442.024 477.518" stroke="black" stroke-width="0.000976562" stroke-miterlimit="10" stroke-linecap="round" stroke-linejoin="round"/>
<path d="M430.914 488.084C430.914 488.084 428.435 473.054 432.26 470.256C436.086 467.459 446.839 478.267 446.839 478.267" stroke="black" stroke-width="0.000976562" stroke-miterlimit="10" stroke-linecap="round" stroke-linejoin="round"/>
<path d="M434.838 489.225C434.838 489.225 432.358 474.194 436.184 471.397C440.008 468.599 450.762 479.408 450.762 479.408" stroke="black" stroke-width="0.000976562" stroke-miterlimit="10" stroke-linecap="round" stroke-linejoin="round"/>
<path d="M438.063 489.468C438.063 489.468 435.584 474.437 439.409 471.64C443.234 468.842 453.987 479.651 453.987 479.651" stroke="black" stroke-width="0.000976562" stroke-miterlimit="10" stroke-linecap="round" stroke-linejoin="round"/>
<path d="M442.666 490.979C442.666 490.979 440.187 475.949 444.012 473.151C447.836 470.354 458.59 481.162 458.59 481.162" stroke="black" stroke-width="0.000976562" stroke-miterlimit="10" stroke-linecap="round" stroke-linejoin="round"/>
<path d="M447.28 491.537C447.28 491.537 444.801 476.507 448.626 473.709C452.451 470.911 463.204 481.72 463.204 481.72" stroke="black" stroke-width="0.000976562" stroke-miterlimit="10" stroke-linecap="round" stroke-linejoin="round"/>
<path d="M452.903 492.861C452.903 492.861 450.424 477.83 454.249 475.033C458.075 472.235 468.828 483.044 468.828 483.044" stroke="black" stroke-width="0.000976562" stroke-miterlimit="10" stroke-linecap="round" stroke-linejoin="round"/>
<path d="M456.161 493.508C456.161 493.508 453.682 478.478 457.507 475.68C461.332 472.883 472.086 483.691 472.086 483.691" stroke="black" stroke-width="0.000976562" stroke-miterlimit="10" stroke-linecap="round" stroke-linejoin="round"/>
<path d="M461.802 494.676C461.802 494.676 459.323 479.646 463.148 476.848C466.973 474.05 477.727 484.859 477.727 484.859" stroke="black" stroke-width="0.000976562" stroke-miterlimit="10" stroke-linecap="round" stroke-linejoin="round"/>
<path d="M464.406 495.941C464.406 495.941 461.927 480.91 465.752 478.113C469.578 475.315 480.331 486.124 480.331 486.124" stroke="black" stroke-width="0.000976562" stroke-miterlimit="10" stroke-linecap="round" stroke-linejoin="round"/>
<path d="M537.759 242.229C537.759 242.229 542.412 258.21 552.805 270.402C563.2 282.594 579.335 290.995 579.335 290.995L531.587 419.628C531.587 419.628 614.974 487.07 653.699 496.878C692.423 506.687 767.508 509.987 804.095 483.691C840.681 457.395 828.685 392.059 790.5 369.155C752.314 346.25 698.117 374.033 651.756 366.755C605.395 359.476 605.889 335.41 605.129 311.997C604.368 288.584 649.663 334.642 648.715 273.104C648.032 228.76 600.758 253.706 600.758 253.706C600.758 253.706 579.339 228.044 552.683 224.484C508.98 218.647 495.254 262.934 495.254 262.934L537.759 242.229Z" fill="#663E0F" stroke="#663E0F" stroke-width="0.00195312" stroke-miterlimit="10" stroke-linecap="round" stroke-linejoin="round"/>
<path d="M550.407 240.672L560.268 260.421L596.175 277.6L567.863 254.757L550.407 240.672Z" fill="#A36317" stroke="#663E0F" stroke-width="0.00195312" stroke-miterlimit="10" stroke-linecap="round" stroke-linejoin="round"/>
<path d="M612.064 260.229L633.524 253.378L642.228 279.192L628.499 264.777L612.064 260.229Z" fill="#A36317" stroke="#663E0F" stroke-width="0.00195312" stroke-miterlimit="10" stroke-linecap="round" stroke-linejoin="round"/>
<path d="M595.681 339.909L620.443 372.587L683.444 381.912L611.775 383.769L595.681 339.909Z" fill="#57360F" stroke="#663E0F" stroke-width="0.00195312" stroke-miterlimit="10" stroke-linecap="round" stroke-linejoin="round"/>
<path d="M800.131 430.016L807.072 467.215L748.775 481.713L789.531 461.054L800.131 430.016Z" fill="#A36317" stroke="#663E0F" stroke-width="0.00195312" stroke-miterlimit="10" stroke-linecap="round" stroke-linejoin="round"/>
<path d="M347.736 517.237L324.45 525.108L347.736 517.237Z" fill="#023B8A"/>
<path d="M898.452 486.424C935.437 380.969 797.335 259.646 589.993 215.439C382.651 171.232 184.586 220.884 147.602 326.338C110.618 431.793 248.719 553.116 456.061 597.322C663.403 641.529 861.468 591.878 898.452 486.424Z" stroke="#B5B5B5" stroke-width="0.000976562" stroke-miterlimit="10" stroke-linecap="round" stroke-linejoin="round"/>
<path d="M889.319 419.334C899.434 308.638 735.35 220.946 522.827 223.467C310.303 225.989 129.819 317.77 119.703 428.466C109.589 539.162 273.673 626.855 486.197 624.333C698.72 621.812 879.204 530.031 889.319 419.334Z" stroke="#323232" stroke-width="0.000976562" stroke-miterlimit="10" stroke-linecap="round" stroke-linejoin="round"/>
<path d="M846.928 283.67C809.441 178.375 621.991 160.045 428.245 242.73C234.5 325.414 107.829 477.801 145.315 583.096C182.803 688.391 370.253 706.721 563.998 624.037C757.744 541.353 884.415 388.966 846.928 283.67Z" stroke="#7F7F7F" stroke-width="0.000976562" stroke-miterlimit="10" stroke-linecap="round" stroke-linejoin="round"/>
<path d="M307.288 318.344C307.288 310.593 300.584 304.31 292.315 304.31C284.046 304.31 277.342 310.593 277.342 318.344C277.342 326.095 284.046 332.378 292.315 332.378C300.584 332.378 307.288 326.095 307.288 318.344Z" fill="#FEBB14"/>
<path d="M171.901 594.623C171.901 581.517 161.15 570.891 147.887 570.891C134.625 570.891 123.874 581.517 123.874 594.623C123.874 607.731 134.625 618.356 147.887 618.356C161.15 618.356 171.901 607.731 171.901 594.623Z" fill="#FEBB14"/>
<path d="M745.653 517.418C745.653 512.633 741.634 508.754 736.677 508.754C731.72 508.754 727.701 512.633 727.701 517.418C727.701 522.203 731.72 526.082 736.677 526.082C741.634 526.082 745.653 522.203 745.653 517.418Z" fill="#FEBB14"/>
<path d="M770.684 206.021C770.684 201.236 766.665 197.357 761.708 197.357C756.751 197.357 752.732 201.236 752.732 206.021C752.732 210.806 756.751 214.685 761.708 214.685C766.665 214.685 770.684 210.806 770.684 206.021Z" fill="#FEBB14"/>
<path d="M891.739 359.2C891.739 351.168 884.797 344.656 876.234 344.656C867.67 344.656 860.728 351.168 860.728 359.2C860.728 367.234 867.67 373.746 876.234 373.746C884.797 373.746 891.739 367.234 891.739 359.2Z" fill="#17252A"/>
<path d="M216.681 311.231C216.681 305.585 212.173 301.007 206.612 301.007C201.052 301.007 196.544 305.585 196.544 311.231C196.544 316.878 201.052 321.454 206.612 321.454C212.173 321.454 216.681 316.878 216.681 311.231Z" fill="#17252A"/>
<path d="M548.849 622.125C548.849 616.478 544.341 611.901 538.781 611.901C533.219 611.901 528.712 616.478 528.712 622.125C528.712 627.77 533.219 632.348 538.781 632.348C544.341 632.348 548.849 627.77 548.849 622.125Z" fill="#323232"/>
<path d="M444.351 228.834C444.351 225.51 441.567 222.816 438.132 222.816C434.698 222.816 431.914 225.51 431.914 228.834C431.914 232.157 434.698 234.851 438.132 234.851C441.567 234.851 444.351 232.157 444.351 228.834Z" fill="#17252A"/>
</g>
<defs>
<clipPath id="clip0_7_34">
<rect width="948" height="897" fill="white" transform="matrix(-1 0 0 1 948 0)"/>
</clipPath>
</defs>
</svg>
