<svg width="80" height="80" viewBox="0 0 80 80" fill="none" xmlns="http://www.w3.org/2000/svg">
<circle cx="40" cy="35" r="15" fill="#14B8A6"/>
<path d="M61.6 72.4C61.6 66.0348 61.4714 66.7303 56.9706 62.2295C52.4697 57.7286 46.3652 55.2 40 55.2C33.6348 55.2 27.5303 57.7286 23.0294 62.2294C18.5286 66.7303 18 66.0348 18 72.4L40 79.2L61.6 72.4Z" fill="#14B8A6"/>
<path d="M77 40C77 60.4345 60.4345 77 40 77C19.5655 77 3 60.4345 3 40C3 19.5655 19.5655 3 40 3C60.4345 3 77 19.5655 77 40Z" stroke="#14B8A6" stroke-width="6"/>
</svg>
