<svg width="60" height="60" viewBox="0 0 60 60" fill="none" xmlns="http://www.w3.org/2000/svg">
<path d="M43.5 55H16.5C13.45 55 10.5249 53.7884 8.36827 51.6317C6.2116 49.4751 5 46.55 5 43.5V16.5C5 13.45 6.2116 10.5249 8.36827 8.36827C10.5249 6.2116 13.45 5 16.5 5H43.5C45.0102 5 46.5056 5.29746 47.9009 5.87539C49.2961 6.45331 50.5639 7.3004 51.6317 8.36827C52.6996 9.43615 53.5467 10.7039 54.1246 12.0991C54.7025 13.4944 55 14.9898 55 16.5V43.5C55 45.0102 54.7025 46.5056 54.1246 47.9009C53.5467 49.2961 52.6996 50.5639 51.6317 51.6317C50.5639 52.6996 49.2961 53.5467 47.9009 54.1246C46.5056 54.7025 45.0102 55 43.5 55ZM16.5 10C14.7781 10.0066 13.1286 10.6935 11.9111 11.9111C10.6935 13.1286 10.0066 14.7781 10 16.5V43.5C10.0066 45.2219 10.6935 46.8714 11.9111 48.0889C13.1286 49.3065 14.7781 49.9934 16.5 50H43.5C45.2219 49.9934 46.8714 49.3065 48.0889 48.0889C49.3065 46.8714 49.9934 45.2219 50 43.5V16.5C49.9934 14.7781 49.3065 13.1286 48.0889 11.9111C46.8714 10.6935 45.2219 10.0066 43.5 10H16.5Z" fill="#46AA9E"/>
<path d="M36.1749 55C35.5119 55 34.876 54.7366 34.4072 54.2678C33.9383 53.7989 33.6749 53.163 33.6749 52.5V44.2C33.6558 43.1902 33.8408 42.187 34.2188 41.2505C34.5969 40.314 35.1602 39.4635 35.8749 38.75C36.5763 38.0278 37.4158 37.4542 38.3436 37.0633C39.2713 36.6725 40.2682 36.4724 41.2749 36.475H52.4999C53.163 36.475 53.7989 36.7384 54.2677 37.2072C54.7365 37.6761 54.9999 38.312 54.9999 38.975C54.9999 39.638 54.7365 40.2739 54.2677 40.7428C53.7989 41.2116 53.163 41.475 52.4999 41.475H41.1749C40.8298 41.4695 40.4872 41.5355 40.1688 41.6688C39.8504 41.8022 39.5631 42.0001 39.3249 42.25C39.0764 42.4932 38.8813 42.7856 38.7522 43.1084C38.623 43.4313 38.5627 43.7775 38.5749 44.125V52.45C38.5749 53.113 38.3115 53.7489 37.8427 54.2178C37.3739 54.6866 36.738 54.95 36.0749 54.95L36.1749 55Z" fill="#46AA9E"/>
</svg>
